<?xml version="1.0" encoding="UTF-8"?>
<svg xmlns="http://www.w3.org/2000/svg" viewBox="0 0 600 600" role="img" aria-label="Acid Wash Oversize Tee - Slate">
  <defs>
      <linearGradient id="wash-p7" x1="0" y1="0" x2="0" y2="1">
        <stop offset="0%" stop-color="#838b96"/>
        <stop offset="100%" stop-color="#6b7280"/>
      </linearGradient>
      <filter id="washNoise-p7">
        <feTurbulence type="fractalNoise" baseFrequency="0.9" numOctaves="2" seed="14"/>
        <feColorMatrix values="0 0 0 0 1   0 0 0 0 1   0 0 0 0 1   0 0 0 0.05 0"/>
        <feComposite in2="SourceGraphic" operator="in"/>
      </filter>
    </defs>
  <rect width="600" height="600" fill="#eef0f3"/>
  <g>
    <path d="M 180,140 L 240,110 C 280,170, 320,170, 360,110 L 420,140 L 510,200 L 480,250 L 430,230 L 430,510 L 170,510 L 170,230 L 120,250 L 90,200 Z" fill="url(#wash-p7)" stroke="rgba(0,0,0,0.25)" stroke-width="2"/>
    <path d="M 180,140 L 240,110 C 280,170, 320,170, 360,110 L 420,140 L 510,200 L 480,250 L 430,230 L 430,510 L 170,510 L 170,230 L 120,250 L 90,200 Z" fill="white" filter="url(#washNoise-p7)" opacity="0.4"/>
    <path d="M 252,118 C 285,160, 315,160, 348,118" fill="none" stroke="#838b96" stroke-width="3" stroke-linecap="round"/>
    
  </g>
  <text x="300" y="568" font-family="system-ui, -apple-system, Segoe UI, Roboto, sans-serif" font-size="18" font-weight="600" text-anchor="middle" fill="#3f3f46">Acid Wash Oversize Tee - Slate</text>
</svg>